<svg xmlns="http://www.w3.org/2000/svg" width="74" height="74"><path d="M17.791 30.7a1.239 1.239 0 00.557-1.66 1.224 1.224 0 00-1.653-.55c-1.258.62-1.895 1.41-1.895 2.34 0 4.7 18.492 4.94 22.2 4.94s22.2-.24 22.2-4.94c0-.95-.671-1.76-2-2.39a1.23 1.23 0 10-1.062 2.22c.14.07.251.13.338.18-1.583.96-8.158 2.46-19.479 2.46s-17.9-1.5-19.481-2.46c.077-.04.166-.09.275-.14zM44.4 13.57v16.65a1.234 1.234 0 002.467 0V13.57a1.234 1.234 0 10-2.467 0zm-4.935 18.5a.432.432 0 00.113-.01 1.231 1.231 0 001.117-1.34c-1.15-12.64 3.008-26.1 4.937-28.11 1.862 1.99 6.086 15.41 4.941 26.87a1.233 1.233 0 102.454.24c1.1-11.03-2.665-25.53-5.615-28.79a2.169 2.169 0 00-3.539-.02c-3 3.29-6.724 18.06-5.635 30.04a1.232 1.232 0 001.227 1.12zM29.6 30.22V13.57a1.234 1.234 0 10-2.467 0v16.65a1.234 1.234 0 002.467 0zM61.667 3.7a1.23 1.23 0 10-1.234-1.23 1.231 1.231 0 001.234 1.23zm-4.683 16.67a1.23 1.23 0 10-.5 2.41c9.141 1.88 15.047 5.04 15.047 8.05 0 4.67-14.182 9.87-34.533 9.87S2.465 35.5 2.465 30.83c0-3.01 5.906-6.17 15.048-8.05a1.231 1.231 0 10-.5-2.41C6.2 22.59 0 26.41 0 30.83c0 8.01 19.064 12.34 37 12.34s37-4.33 37-12.34c0-4.42-6.2-8.24-17.016-10.46zm.983 22.8a1.232 1.232 0 00-1.234 1.23v22.82c-1.509 1.03-7.285 4.31-19.733 4.31-12.321 0-18.194-3.29-19.733-4.32V50.3c2.936 1.54 9.224 3.97 19.733 3.97a48.264 48.264 0 0016.455-2.54 1.234 1.234 0 00-.843-2.32A45.86 45.86 0 0137 51.8c-11.951 0-18.1-3.31-19.733-4.35V44.4a1.234 1.234 0 00-2.467 0v23.43a1.223 1.223 0 00.422.93C15.467 68.98 21.402 74 37 74c15.78 0 21.554-5.04 21.792-5.25a1.233 1.233 0 00.408-.92V44.4a1.232 1.232 0 00-1.233-1.23zM22.323 30.83a1.233 1.233 0 001.1-1.35C22.277 18.02 26.501 4.6 28.364 2.61c1.929 2.01 6.086 15.47 4.937 28.11a1.231 1.231 0 001.117 1.34.432.432 0 00.113.01 1.232 1.232 0 001.227-1.12C36.847 18.97 33.127 4.2 30.123.91a2.169 2.169 0 00-3.539.02c-2.95 3.26-6.719 17.76-5.615 28.79a1.237 1.237 0 001.354 1.11zm-9.99-18.5A1.23 1.23 0 1011.1 11.1a1.234 1.234 0 001.233 1.23zm-11.1-7.4h1.234v1.24a1.233 1.233 0 002.466 0V4.93h1.233a1.23 1.23 0 100-2.46H4.933V1.24a1.233 1.233 0 10-2.466 0v1.23H1.233a1.23 1.23 0 100 2.46z" fill="#ffde8f" fill-rule="evenodd"/></svg>