<svg xmlns="http://www.w3.org/2000/svg" width="75" height="75"><path d="M36.25 17.5a1.25 1.25 0 001.25-1.25V2.5h8.23l-1.61 1.62a1.237 1.237 0 000 1.76l1.61 1.62h-4.48a1.25 1.25 0 000 2.5h7.5a1.255 1.255 0 001.15-.77 1.226 1.226 0 00-.27-1.36L46.77 5l2.86-2.87A1.226 1.226 0 0049.9.77 1.24 1.24 0 0048.75 0h-12.5A1.25 1.25 0 0035 1.25v15a1.25 1.25 0 001.25 1.25zm38.74 56.07a125.148 125.148 0 00-7.43-26.55C63.02 36.14 57.34 28.43 50.77 24.1a1.535 1.535 0 00-.29-.21 23.6 23.6 0 00-25.96 0 1.61 1.61 0 00-.3.21c-6.56 4.33-12.25 12.04-16.78 22.92A125.148 125.148 0 00.01 73.57 1.259 1.259 0 001.25 75h12.5a1.25 1.25 0 000-2.5H2.73c.19-1.12.52-2.85 1-5H17.8c-.13 1.51-.21 3.03-.25 4.56-.03.57-.05 1.14-.05 1.69a1.25 1.25 0 002.5 0C20 62.3 26.98 45 37.5 45S55 62.3 55 73.75a1.25 1.25 0 002.5 0c0-.55-.02-1.12-.05-1.69-.04-1.53-.12-3.05-.25-4.56h14.07c.48 2.15.81 3.88 1 5H61.25a1.25 1.25 0 000 2.5h12.5a1.259 1.259 0 001.24-1.43zM37.5 22.5a20.843 20.843 0 019.13 2.11 35.205 35.205 0 00-9.13 4.36 35.205 35.205 0 00-9.13-4.36 20.843 20.843 0 019.13-2.11zM18.05 65H4.31c2.76-11.37 9.01-30.51 21-38.65a33.577 33.577 0 0110.04 4.17 40.8 40.8 0 00-10.54 12.63A61.073 61.073 0 0018.05 65zM37.5 42.5c-5.81 0-10.62 4.2-14.06 9.97 2.74-8.05 7.27-15.45 14.06-20.49 6.79 5.04 11.32 12.44 14.06 20.49-3.44-5.77-8.25-9.97-14.06-9.97zM56.95 65a61.073 61.073 0 00-6.76-21.85 40.8 40.8 0 00-10.54-12.63 33.577 33.577 0 0110.04-4.17c11.99 8.14 18.24 27.28 21 38.65H56.95z" fill="#ffde8f" fill-rule="evenodd"/></svg>