<svg xmlns="http://www.w3.org/2000/svg" width="11" height="11"><path d="M10.752 8.7L9.052 7a.883.883 0 00-1.248.024l-.856.858-.169-.094a8.042 8.042 0 01-3.549-3.56 17.28 17.28 0 00-.092-.165l.574-.575L4 3.2a.888.888 0 00.023-1.252l-1.7-1.7a.882.882 0 00-1.248.024L.596.755l.013.013a2.765 2.765 0 00-.394.7 2.891 2.891 0 00-.176.708C-.185 4.04.665 5.744 2.97 8.056c3.187 3.2 5.755 2.954 5.866 2.942a2.885 2.885 0 00.708-.178 2.785 2.785 0 00.693-.394l.01.009.485-.476a.89.89 0 00.02-1.259z" fill="#f9b81e" fill-rule="evenodd"/></svg>