<svg xmlns="http://www.w3.org/2000/svg" width="77" height="77"><path data-name="icon 2" d="M61.3 42.8v-8.21a22.507 22.507 0 00-5.392-14.6 22.832 22.832 0 00-12.376-7.45 3.35 3.35 0 00.031-.44 3.1 3.1 0 00-3.1-3.1 3.171 3.171 0 00-1.961.68 3.111 3.111 0 00-5.052 2.42 3.56 3.56 0 00.027.44 22.823 22.823 0 00-12.374 7.45 22.511 22.511 0 00-5.39 14.6v8.17L13 62h3v2h2v-2h5l-2.455-19.24v-2.84c9.275-6.37 13.894-12.45 16.141-16.46a27.235 27.235 0 001.815-3.91 27.235 27.235 0 001.815 3.91c2.246 4.01 6.865 10.09 16.139 16.45v2.85L54 62h6v2h2v-2h2zM17 40h2v2h-2v-2zm4.206 20.03h-6.143l2.385-16.31h1.359zm13.8-37.32c-2.172 3.83-6.653 9.67-15.666 15.82h-1.8v-3.94a20.789 20.789 0 0116.669-20.35 24.939 24.939 0 003.084 3.03 22.913 22.913 0 01-2.285 5.44zm3.493-6.88l-.089-.01a17.454 17.454 0 01-2.923-2.95l-.009-.02a1.422 1.422 0 01-.2-.75 1.255 1.255 0 011.26-1.28 1.823 1.823 0 011.331.73l.635.59.629-.6a1.864 1.864 0 011.323-.72 1.258 1.258 0 011.266 1.28 1.571 1.571 0 01-.2.75l-.016.03a16.648 16.648 0 01-2.913 2.94zm3.493 6.88a22.913 22.913 0 01-2.288-5.44 24.483 24.483 0 003.087-3.03A20.788 20.788 0 0159.46 34.59v3.94h-1.8c-9.013-6.15-13.494-11.99-15.666-15.82zM60 40v2h-2v-2h2zm-4.191 20.03l2.385-16.31h1.358l2.4 16.31h-6.143zM42.037 49.65L42 49h7v-2H27v2h7a3.829 3.829 0 003 4v10h-3l-.025 2.01L38 65l4.026.01L42 63h-3V53c1.505-.4 3.037-1.73 3.037-3.35zM38 51c-.937 0-2-.07-2-1v-1h4v1c0 .93-1.063 1-2 1zM0 0h2v12H0V0zm12 0v2H0V0h12zm65 77h-2V65h2v12zm-12 0v-2h12v2H65zM77 0h-2v12h2V0zM65 0v2h12V0H65zM0 77h2V65H0v12zm12 0v-2H0v2h12z" fill="#ffbf1d" fill-rule="evenodd"/></svg>