<svg xmlns="http://www.w3.org/2000/svg" width="77" height="77"><path data-name="icon 3" d="M0 0h2v12H0V0zm12 0v2H0V0h12zm65 77h-2V65h2v12zm-12 0v-2h12v2H65zM77 0h-2v12h2V0zM65 0v2h12V0H65zM0 77h2V65H0v12zm12 0v-2H0v2h12zm30.3-40.53h-2.82a1.718 1.718 0 01-1.72-1.71v-.69a2.164 2.164 0 00-2.16-2.16H25a2.155 2.155 0 00-2.15 2.16v.69a1.724 1.724 0 01-1.72 1.71h-2.82a3.952 3.952 0 00-3.95 3.95v3.37a.845.845 0 101.69 0v-3.37a2.264 2.264 0 012.26-2.26h2.82a3.412 3.412 0 003.41-3.4v-.69a.467.467 0 01.46-.47h10.6a.469.469 0 01.47.47v.69a3.412 3.412 0 003.41 3.4h2.82a2.262 2.262 0 012.25 2.26V55.9a2.256 2.256 0 01-2.25 2.26H18.31a2.258 2.258 0 01-2.26-2.26v-6.98a.845.845 0 00-1.69 0v6.98a3.952 3.952 0 003.95 3.95H42.3a3.95 3.95 0 003.94-3.95V40.42a3.95 3.95 0 00-3.94-3.95zm-12 3.7a7.585 7.585 0 107.59 7.59 7.6 7.6 0 00-7.59-7.59zm0 13.48a5.9 5.9 0 115.9-5.89 5.9 5.9 0 01-5.9 5.89zm11.15-13.24a.905.905 0 10.9.9.9.9 0 00-.9-.9zM52.2 15.15H26.5a.839.839 0 00-.84.84v12.75a.841.841 0 00.84.85.849.849 0 00.85-.85v-11.9h24v7.17a.845.845 0 101.69 0v-8.02a.845.845 0 00-.84-.84zm-3.66 3.59H30.07a.839.839 0 00-.84.84v9.39a.845.845 0 001.69 0v-8.55H47.7v2.54a.832.832 0 00.84.84.841.841 0 00.85-.84v-3.38a.841.841 0 00-.85-.84zm16.47 13.21l-23.97-9.27a.846.846 0 00-1.09.48l-2.36 6.09a.847.847 0 001.58.61l2.05-5.3 22.39 8.66-8.67 22.38-6.14-2.38a.847.847 0 00-.61 1.58l6.93 2.68a1.059 1.059 0 00.31.05.836.836 0 00.78-.54l9.28-23.95a.846.846 0 00-.48-1.09zm-4.24 2.47a.846.846 0 00-.47-.44l-17.22-6.67a.887.887 0 00-.66.02.9.9 0 00-.44.48l-2.17 6.01a.846.846 0 101.59.58l1.88-5.2 15.62 6.05-4.69 12.13-5.65-2.19a.847.847 0 00-.61 1.58l6.43 2.49a.866.866 0 001.1-.49l5.31-13.7a.861.861 0 00-.02-.65z" fill="#fab91e" fill-rule="evenodd"/></svg>