<svg xmlns="http://www.w3.org/2000/svg" width="77" height="77"><path data-name="icon 4" d="M0 0h2v12H0V0zm12 0v2H0V0h12zm65 77h-2V65h2v12zm-12 0v-2h12v2H65zM77 0h-2v12h2V0zM65 0v2h12V0H65zM0 77h2V65H0v12zm12 0v-2H0v2h12zm35.1-39.27a.9.9 0 00-.9.89v8.83a.9.9 0 001.8 0v-8.83a.9.9 0 00-.9-.89zm-7.2-22.08a.9.9 0 00.9-.89v-.88a.9.9 0 00-1.8 0v.88a.9.9 0 00.9.89zM24.6 35.08v15.9a.9.9 0 00.9.89h26.992a.9.9 0 00.9-.89v-15.9a.893.893 0 00-.9-.88H25.5a.894.894 0 00-.9.88zm1.8.89h25.192V50.1H26.4V35.97zm38.052-17.05a.873.873 0 00.636-.26l.636-.62a.872.872 0 000-1.25.9.9 0 00-1.272 0l-.636.62a.885.885 0 00.637 1.51zm-2.963 2.91a.919.919 0 00.637-.26l.636-.62a.874.874 0 000-1.25.9.9 0 00-1.273 0l-.636.62a.872.872 0 000 1.25.918.918 0 00.637.26zm-19.794 15.9a.9.9 0 00-.9.89v8.83a.9.9 0 001.8 0v-8.83a.9.9 0 00-.895-.89zm8.41-16.82a.955.955 0 00.285.05.9.9 0 00.852-.61l.607-1.78a.886.886 0 00-.569-1.12.9.9 0 00-1.137.56l-.606 1.78a.877.877 0 00.569 1.12zM36.3 37.73a.9.9 0 00-.9.89v8.83a.9.9 0 001.8 0v-8.83a.9.9 0 00-.9-.89zm15.626-22.17a.935.935 0 00.285.04.9.9 0 00.853-.6l.284-.84a.885.885 0 00-.568-1.12.909.909 0 00-1.138.56l-.285.84a.886.886 0 00.567 1.12zM30.9 37.73a.9.9 0 00-.9.89v8.83a.9.9 0 001.8 0v-8.83a.9.9 0 00-.9-.89zm17.71-12.41a.949.949 0 00.284.05.9.9 0 00.853-.61l.285-.84a.872.872 0 00-.568-1.11.9.9 0 00-1.138.55l-.285.84a.878.878 0 00.569 1.12zm-18.849-1.4l.286.84a.9.9 0 00.853.61.949.949 0 00.284-.05.879.879 0 00.569-1.12l-.285-.84a.9.9 0 00-1.138-.55.873.873 0 00-.569 1.11zm2.938 35.02a.887.887 0 00-.9.88v5.3a.9.9 0 001.8 0v-5.3a.887.887 0 00-.899-.88zm9-3.54H23.7a2.68 2.68 0 01-2.7-2.65V33.32a2.68 2.68 0 012.7-2.65h23.4a.885.885 0 100-1.77H23.7a4.463 4.463 0 00-4.5 4.42v19.43a4.463 4.463 0 004.5 4.42h18a.885.885 0 100-1.77zm16.2-15.9a.893.893 0 00-.9.88v12.37a2.679 2.679 0 01-2.7 2.65h-9a.9.9 0 00-.9.89v8.83a.9.9 0 001.8 0v-7.95h8.1a4.463 4.463 0 004.5-4.42V40.38a.893.893 0 00-.907-.88zM20.1 25.37a.918.918 0 00.636-.26.872.872 0 000-1.25l-.636-.63a.922.922 0 00-1.273 0 .874.874 0 000 1.25l.637.63a.915.915 0 00.636.26zm45.271 3.57L60.4 27.32l-1.659-4.88a.9.9 0 00-1.706 0l-1.658 4.88-4.971 1.62a.881.881 0 000 1.68l4.971 1.63 1.658 4.88a.906.906 0 001.706 0l1.659-4.88 4.971-1.63a.881.881 0 00.003-1.68zm-5.967 1.77a.9.9 0 00-.569.56l-.946 2.79-.947-2.79a.9.9 0 00-.569-.56l-2.837-.93 2.837-.93a.859.859 0 00.569-.56l.947-2.78.946 2.78a.859.859 0 00.569.56l2.837.93zm-42.86-10.97a.921.921 0 00-1.272 0 .872.872 0 000 1.25l1.185 1.16a.908.908 0 001.272 0 .86.86 0 000-1.24zm11.4-1.17l.606 1.78a.9.9 0 00.853.61.955.955 0 00.285-.05.877.877 0 00.568-1.12l-.606-1.78a.907.907 0 00-1.137-.56.885.885 0 00-.569 1.12zm11.953 6.8a.9.9 0 00.9-.89v-.88a.9.9 0 00-1.8 0v.88a.9.9 0 00.903.89zM26.732 15a.9.9 0 00.853.6.935.935 0 00.285-.04.887.887 0 00.569-1.12l-.285-.84a.911.911 0 00-1.138-.56.885.885 0 00-.568 1.12zm13.165 5.95a.9.9 0 00.9-.89V18.3a.9.9 0 00-1.8 0v1.76a.9.9 0 00.903.89zm-26.356-4.16a.9.9 0 00-1.272 0 .872.872 0 000 1.25l.636.62a.892.892 0 001.272-1.25z" fill="#ffbf1d" fill-rule="evenodd"/></svg>