<svg xmlns="http://www.w3.org/2000/svg" width="77" height="77"><path data-name="icon 5" d="M0 0h2v12H0V0zm12 0v2H0V0h12zm65 77h-2V65h2v12zm-12 0v-2h12v2H65zM77 0h-2v12h2V0zM65 0v2h12V0H65zM0 77h2V65H0v12zm12 0v-2H0v2h12zm42.992-60.45a4.444 4.444 0 012.687 2.69.887.887 0 00.831.59 1.015 1.015 0 00.3-.05.889.889 0 00.537-1.13 6.164 6.164 0 00-3.76-3.77.886.886 0 00-.595 1.67zm-8.083 24.38a.945.945 0 00.846 0C57.807 35.44 63.23 26.42 63.23 20.71a9.716 9.716 0 00-18.526-4.1.884.884 0 101.6.75 7.949 7.949 0 0115.158 3.35c0 5.19-5.275 13.43-14.131 18.43-8.856-5-14.132-13.24-14.132-18.43a7.959 7.959 0 0111.132-7.29.875.875 0 001.163-.45.891.891 0 00-.455-1.17 9.721 9.721 0 00-13.606 8.91c.001 5.71 5.425 14.73 15.476 20.22zm-23.424 3.64h7.066c1.029 0 2.782 1.31 4.327 2.47 1.938 1.46 3.768 2.83 5.388 2.83h5.3a3.122 3.122 0 012.025.62.88.88 0 001.249 0 .872.872 0 000-1.24 4.663 4.663 0 00-3.274-1.15h-5.3c-1.031 0-2.782-1.31-4.328-2.47C34 44.17 32.17 42.8 30.551 42.8h-7.066a.885.885 0 000 1.77zm-7.066 13.69a1.325 1.325 0 10-1.325 1.33 1.322 1.322 0 001.325-1.33zm48.1-10.16a3.515 3.515 0 00-2.146-1.64 3.449 3.449 0 00-2.626.32l-10.165 4.95c-1.58.79-3.175.79-6.67.79a67.578 67.578 0 01-8.688-.87.882.882 0 10-.29 1.74 67.2 67.2 0 008.977.9c3.668 0 5.508 0 7.452-.98l10.213-4.97a1.768 1.768 0 012.589 1.99 1.823 1.823 0 01-.848 1.09l-11.941 7.43c-.026.02-2.573 1.62-8.348 1.62-5.007 0-12.742-4.26-12.853-4.32a13.585 13.585 0 00-5.694-.98.885.885 0 000 1.77 12.567 12.567 0 014.87.77c.334.19 8.212 4.53 13.677 4.53 6.376 0 9.2-1.84 9.3-1.9l11.9-7.41a3.534 3.534 0 001.295-4.83zm-46.337-8.83h-5.3a.88.88 0 100 1.76h5.3a.889.889 0 01.883.89v19.44a.886.886 0 01-.883.88h-5.3a.885.885 0 000 1.77h5.3a2.654 2.654 0 002.649-2.65V41.92a2.654 2.654 0 00-2.645-2.65z" fill="#fab91e" fill-rule="evenodd"/></svg>